<?xml version="1.0" encoding="iso-8859-1"?>
<!-- Uploaded to: SVG Repo, www.svgrepo.com, Generator: SVG Repo Mixer Tools -->
<svg height="800px" width="800px" version="1.1" id="Layer_1" xmlns="http://www.w3.org/2000/svg" xmlns:xlink="http://www.w3.org/1999/xlink" 
	 viewBox="0 0 504 504" xml:space="preserve">
<circle style="fill:#84DBFF;" cx="252" cy="252" r="252"/>
<path style="fill:#324A5E;" d="M225.1,439.9c-18.3,0-33.3-14.9-33.3-33.3v-9.7c0-4.3,3.5-7.9,7.9-7.9s7.9,3.5,7.9,7.9v9.7
	c0,9.7,7.9,17.5,17.5,17.5c9.7,0,17.5-7.9,17.5-17.5V77.1c0-4.3,3.5-7.9,7.9-7.9c4.3,0,7.9,3.5,7.9,7.9v329.5
	C258.3,424.9,243.4,439.9,225.1,439.9z"/>
<path style="fill:#FFFFFF;" d="M250.1,98.1c-82.6,0-151.9,56.8-171.1,133.5c9.5-6.4,20.8-10.1,33.1-10.1c18.6,0,35.1,8.5,46,21.9
	c10.9-13.3,27.4-21.9,46-21.8c18.6,0,35.1,8.5,46,21.9l0,0c10.9-13.3,27.4-21.9,46-21.8c18.6,0,35.1,8.5,46,21.9
	c10.9-13.3,27.4-21.9,46-21.8c12.3,0,23.6,3.7,33.1,10.1C402.1,154.9,332.7,98.1,250.1,98.1z"/>
</svg>