<!DOCTYPE svg PUBLIC "-//W3C//DTD SVG 1.1//EN" "http://www.w3.org/Graphics/SVG/1.1/DTD/svg11.dtd">
<!-- Uploaded to: SVG Repo, www.svgrepo.com, Transformed by: SVG Repo Mixer Tools -->
<svg height="800px" width="800px" version="1.1" id="Layer_1" xmlns="http://www.w3.org/2000/svg" xmlns:xlink="http://www.w3.org/1999/xlink" viewBox="0 0 511.984 511.984" xml:space="preserve" fill="#000000">
<g id="SVGRepo_bgCarrier" stroke-width="0"/>
<g id="SVGRepo_tracerCarrier" stroke-linecap="round" stroke-linejoin="round"/>
<g id="SVGRepo_iconCarrier"> <path style="fill:#f5f5f5;" d="M351.989,10.66c-46.123,0-87.669,19.523-116.871,50.749c-15.64-18.023-38.718-29.414-64.451-29.414 c-47.14,0-85.325,38.202-85.325,85.333c0,0.711,0,1.422,0.031,2.125C36.655,129.328,0,172.373,0,223.989 c0,58.904,47.749,106.652,106.669,106.652h245.32c88.372,0,159.995-71.622,159.995-159.987 C511.984,82.298,440.361,10.66,351.989,10.66z"/> <path style="fill:#757c84;" d="M453.954,47.362c22.922,27.687,36.703,63.217,36.703,101.966 c0,88.356-71.638,160.002-159.995,160.002H85.342c-24.031,0-46.187-7.937-63.998-21.343c19.452,25.905,50.436,42.654,85.325,42.654 h245.32c88.372,0,159.995-71.622,159.995-159.987C511.984,121.047,489.407,76.705,453.954,47.362z"/> <polygon style="fill:#F6BB42;" points="255.992,309.377 255.992,181.326 170.667,373.375 234.665,373.375 234.665,501.324 319.991,309.377 "/> </g>
</svg>